<svg version="1.1" id="Layer_1" xmlns="http://www.w3.org/2000/svg" xmlns:xlink="http://www.w3.org/1999/xlink" x="0px" y="0px"
	 width="100%" viewBox="0 0 500 500" enable-background="new 0 0 500 500" xml:space="preserve">
<path fill="#fff" opacity="000000" stroke="none"
	d="
M282.000000,501.000000
	C188.000015,501.000000 94.500046,501.000000 1.000050,501.000000
	C1.000033,334.333405 1.000033,167.666794 1.000017,1.000140
	C167.666565,1.000093 334.333130,1.000093 500.999756,1.000046
	C500.999847,167.666519 500.999847,334.333038 500.999939,500.999786
	C428.166656,501.000000 355.333344,501.000000 282.000000,501.000000
M115.952705,122.974709
	C115.952705,122.974709 115.935944,122.866196 115.341942,123.133842
	C115.171478,123.753342 115.001022,124.372849 114.951088,124.986198
	C114.951088,124.986198 114.936295,124.866425 114.342117,125.133713
	C114.171471,125.753166 114.000824,126.372620 113.949135,126.985733
	C113.949135,126.985733 113.933769,126.867599 113.290230,127.186859
	C113.135246,128.125900 112.980263,129.064926 112.952286,129.993515
	C112.952286,129.993515 112.934135,129.867355 112.177193,130.328232
	C112.119621,130.822586 112.011665,131.316925 112.011604,131.811279
	C112.002563,210.733459 111.997192,289.655640 112.038521,368.577789
	C112.039146,369.763031 112.622780,370.947937 112.949608,372.016785
	C112.949608,372.016785 112.832527,372.010773 112.990089,372.651276
	C113.314705,373.141876 113.639313,373.632446 113.987572,374.872131
	C115.828506,380.994904 119.726501,385.109131 126.055641,387.563660
	C126.365074,387.761505 126.674507,387.959351 126.976028,388.047607
	C126.976028,388.047607 126.867546,388.065247 127.272072,388.782715
	C129.326828,389.188599 131.381317,389.947784 133.436386,389.949371
	C211.769272,390.009613 290.102234,390.014282 368.435059,389.918121
	C370.341278,389.915802 372.246002,388.689178 374.874207,388.035889
	C381.087585,385.116913 385.958649,380.929291 388.648834,373.869202
	C388.822815,373.248993 388.996765,372.628784 389.051239,372.014191
	C389.051239,372.014191 389.065979,372.132935 389.823029,371.672119
	C389.880585,371.177765 389.988525,370.683411 389.988586,370.189056
	C389.997559,291.266663 390.002869,212.344254 389.961487,133.421860
	C389.960876,132.236710 389.377319,131.051849 389.048126,129.989594
	C389.048126,129.989594 389.171753,129.999039 389.012634,129.292877
	C388.697418,128.483963 388.382202,127.675056 388.051849,126.981522
	C388.051849,126.981522 388.168091,126.987022 388.011139,126.352005
	C387.695282,125.856468 387.379425,125.360924 387.047791,124.971268
	C387.047791,124.971268 387.154694,124.976730 386.957672,124.456139
	C386.650757,124.271217 386.343811,124.086304 385.787903,123.251839
	C381.855255,117.185150 376.023499,114.196045 368.680176,112.185326
	C368.186310,112.124969 367.692474,112.011780 367.198608,112.011719
	C290.269928,112.002365 213.341232,111.996887 136.412567,112.039566
	C135.238297,112.040215 134.064362,112.640427 132.077759,112.988434
	C128.707138,114.281754 125.336510,115.575073 121.318680,116.992943
	C120.813995,117.318787 120.309311,117.644630 119.276588,118.116814
	C118.841202,118.679291 118.405815,119.241768 117.375435,120.105980
	C117.193779,120.735458 117.012123,121.364944 116.979095,121.995796
	C116.979095,121.995796 116.977119,121.847176 116.446671,122.048767
	C116.245491,122.359734 116.044312,122.670692 115.952705,122.974709
z"/>
<path fill="#F4E9CD" opacity="1.000000" stroke="none"
	d="
M125.864601,387.036133
	C119.726501,385.109131 115.828506,380.994904 113.958969,374.177063
	C113.564415,372.991608 113.198471,372.501190 112.832527,372.010773
	C112.832527,372.010773 112.949608,372.016785 112.977493,371.598145
	C113.003899,351.694489 113.006569,332.209473 113.000130,312.724457
	C112.979980,251.772095 112.956398,190.819717 112.934135,129.867355
	C112.934135,129.867355 112.952286,129.993515 113.179459,129.790787
	C113.582336,128.681244 113.758049,127.774414 113.933762,126.867599
	C113.933769,126.867599 113.949135,126.985733 114.161057,126.813232
	C114.560753,126.049294 114.748520,125.457863 114.936295,124.866425
	C114.936295,124.866425 114.951088,124.986198 115.162201,124.813309
	C115.560867,124.049011 115.748413,123.457603 115.935944,122.866196
	C115.935944,122.866196 115.952705,122.974709 116.137161,122.843338
	C116.540123,122.423706 116.758621,122.135437 116.977119,121.847176
	C116.977119,121.847176 116.979095,121.995796 117.182159,121.812256
	C117.580292,121.020554 117.775352,120.412399 117.970413,119.804245
	C118.405815,119.241768 118.841202,118.679291 119.868378,118.039902
	C120.962074,117.598122 121.463974,117.233253 121.965881,116.868385
	C125.336510,115.575073 128.707138,114.281754 132.959213,112.986946
	C212.263748,112.977020 290.686829,112.968575 369.109894,112.960129
	C376.023499,114.196045 381.855255,117.185150 386.046814,123.804031
	C386.588745,124.563057 386.871704,124.769897 387.154694,124.976730
	C387.154694,124.976730 387.047791,124.971268 387.057678,125.241119
	C387.434418,126.002991 387.801270,126.495003 388.168091,126.987015
	C388.168091,126.987022 388.051849,126.981522 388.030884,127.282158
	C388.397156,128.388214 388.784454,129.193634 389.171753,129.999039
	C389.171753,129.999039 389.048126,129.989594 389.021118,130.404938
	C388.995636,154.302292 388.991913,177.784302 388.999817,201.266296
	C389.018982,258.221832 389.043579,315.177399 389.065979,372.132935
	C389.065979,372.132935 389.051239,372.014191 388.842194,372.185150
	C388.435455,372.939148 388.237762,373.522156 388.040070,374.105194
	C385.958649,380.929291 381.087585,385.116913 374.075073,388.024261
	C367.821930,388.341339 362.366943,388.970825 356.914032,388.953430
	C280.231720,388.708984 203.549652,388.376404 126.867546,388.065247
	C126.867546,388.065247 126.976028,388.047607 126.844040,387.868103
	C126.429558,387.471100 126.147079,387.253601 125.864601,387.036133
M245.968399,350.996460
	C256.980774,351.568207 267.532288,349.139771 277.742096,345.453003
	C315.348541,331.873291 349.658020,293.519379 342.707214,238.025757
	C336.283966,186.744247 291.088898,150.784225 244.552094,151.882706
	C244.552094,151.882706 244.100677,151.819946 243.483398,151.374344
	C219.407318,152.881470 195.334488,154.443848 171.253571,155.869156
	C161.274063,156.459839 157.705994,160.384720 158.241684,170.456894
	C158.842834,181.760162 159.410263,193.066910 159.817459,204.378433
	C160.997620,237.161087 162.053741,269.948181 163.236267,302.730743
	C163.662308,314.541687 164.254257,326.347565 164.879181,338.149994
	C165.188568,343.992950 168.611252,347.791534 174.082550,348.044495
	C197.364182,349.120972 220.652603,350.050720 244.495987,351.045746
	C244.679871,351.020111 244.863770,350.994476 245.968399,350.996460
z"/>
<path fill="#FFFFFF" opacity="1.000000" stroke="none"
	d="
M127.069809,388.423950
	C203.549652,388.376404 280.231720,388.708984 356.914032,388.953430
	C362.366943,388.970825 367.821930,388.341339 373.713684,388.023132
	C372.246002,388.689178 370.341278,389.915802 368.435059,389.918121
	C290.102234,390.014282 211.769272,390.009613 133.436386,389.949371
	C131.381317,389.947784 129.326828,389.188599 127.069809,388.423950
z"/>
<path fill="#FFFFFF" opacity="1.000000" stroke="none"
	d="
M112.555664,130.097794
	C112.956398,190.819717 112.979980,251.772095 113.000130,312.724457
	C113.006569,332.209473 113.003899,351.694489 112.969864,371.656250
	C112.622780,370.947937 112.039146,369.763031 112.038521,368.577789
	C111.997192,289.655640 112.002563,210.733459 112.011604,131.811279
	C112.011665,131.316925 112.119621,130.822586 112.555664,130.097794
z"/>
<path fill="#FFFFFF" opacity="1.000000" stroke="none"
	d="
M389.444519,371.902527
	C389.043579,315.177399 389.018982,258.221832 388.999817,201.266296
	C388.991913,177.784302 388.995636,154.302292 389.029938,130.343567
	C389.377319,131.051849 389.960876,132.236710 389.961487,133.421860
	C390.002869,212.344254 389.997559,291.266663 389.988586,370.189056
	C389.988525,370.683411 389.880585,371.177765 389.444519,371.902527
z"/>
<path fill="#FFFFFF" opacity="1.000000" stroke="none"
	d="
M368.895020,112.572723
	C290.686829,112.968575 212.263748,112.977020 133.365463,112.973145
	C134.064362,112.640427 135.238297,112.040215 136.412567,112.039566
	C213.341232,111.996887 290.269928,112.002365 367.198608,112.011719
	C367.692474,112.011780 368.186310,112.124969 368.895020,112.572723
z"/>
<path fill="#FFFFFF" opacity="1.000000" stroke="none"
	d="
M113.612000,127.027229
	C113.758049,127.774414 113.582336,128.681244 113.115952,129.796021
	C112.980263,129.064926 113.135246,128.125900 113.612000,127.027229
z"/>
<path fill="#FFFFFF" opacity="1.000000" stroke="none"
	d="
M389.092194,129.645966
	C388.784454,129.193634 388.397156,128.388214 388.038452,127.224472
	C388.382202,127.675056 388.697418,128.483963 389.092194,129.645966
z"/>
<path fill="#FFFFFF" opacity="1.000000" stroke="none"
	d="
M388.089630,126.669510
	C387.801270,126.495003 387.434418,126.002991 387.065552,125.188187
	C387.379425,125.360924 387.695282,125.856468 388.089630,126.669510
z"/>
<path fill="#FFFFFF" opacity="1.000000" stroke="none"
	d="
M388.344452,373.987183
	C388.237762,373.522156 388.435455,372.939148 388.901917,372.182343
	C388.996765,372.628784 388.822815,373.248993 388.344452,373.987183
z"/>
<path fill="#FFFFFF" opacity="1.000000" stroke="none"
	d="
M112.911308,372.331024
	C113.198471,372.501190 113.564415,372.991608 113.947144,373.802521
	C113.639313,373.632446 113.314705,373.141876 112.911308,372.331024
z"/>
<path fill="#FFFFFF" opacity="1.000000" stroke="none"
	d="
M121.642281,116.930664
	C121.463974,117.233253 120.962074,117.598122 120.132401,117.966736
	C120.309311,117.644630 120.813995,117.318787 121.642281,116.930664
z"/>
<path fill="#FFFFFF" opacity="1.000000" stroke="none"
	d="
M117.672928,119.955109
	C117.775352,120.412399 117.580292,121.020554 117.107849,121.811569
	C117.012123,121.364944 117.193779,120.735458 117.672928,119.955109
z"/>
<path fill="#FFFFFF" opacity="1.000000" stroke="none"
	d="
M115.638947,123.000015
	C115.748413,123.457603 115.560867,124.049011 115.101944,124.816376
	C115.001022,124.372849 115.171478,123.753342 115.638947,123.000015
z"/>
<path fill="#FFFFFF" opacity="1.000000" stroke="none"
	d="
M114.639206,125.000069
	C114.748520,125.457863 114.560753,126.049294 114.101578,126.816406
	C114.000824,126.372620 114.171471,125.753166 114.639206,125.000069
z"/>
<path fill="#FFFFFF" opacity="1.000000" stroke="none"
	d="
M116.711899,121.947968
	C116.758621,122.135437 116.540123,122.423706 116.082375,122.846817
	C116.044312,122.670692 116.245491,122.359734 116.711899,121.947968
z"/>
<path fill="#FFFFFF" opacity="1.000000" stroke="none"
	d="
M387.056183,124.716438
	C386.871704,124.769897 386.588745,124.563057 386.171326,124.128799
	C386.343811,124.086304 386.650757,124.271217 387.056183,124.716438
z"/>
<path fill="#FFFFFF" opacity="1.000000" stroke="none"
	d="
M125.960121,387.299896
	C126.147079,387.253601 126.429558,387.471100 126.847992,387.922913
	C126.674507,387.959351 126.365074,387.761505 125.960121,387.299896
z"/>
<path fill="#FF4886" opacity="1.000000" stroke="none"
	d="
M243.938538,351.034027
	C220.652603,350.050720 197.364182,349.120972 174.082550,348.044495
	C168.611252,347.791534 165.188568,343.992950 164.879181,338.149994
	C164.254257,326.347565 163.662308,314.541687 163.236267,302.730743
	C162.053741,269.948181 160.997620,237.161087 159.817459,204.378433
	C159.410263,193.066910 158.842834,181.760162 158.241684,170.456894
	C157.705994,160.384720 161.274063,156.459839 171.253571,155.869156
	C195.334488,154.443848 219.407318,152.881470 243.749054,152.082916
	C244.058167,161.958496 244.101624,171.125488 244.054321,180.668381
	C240.834778,181.698593 237.722656,182.449905 234.574326,182.990585
	C220.335480,185.435852 209.013763,191.957718 204.341812,206.379669
	C199.652863,220.854156 202.395096,234.111298 213.552902,244.853897
	C217.579102,248.730270 222.411362,251.831284 227.109787,254.931503
	C232.648666,258.586334 238.441376,261.856506 244.158691,265.734680
	C244.166916,273.537842 244.140488,280.899750 243.784790,288.447021
	C238.272995,288.529022 235.570404,285.584290 234.761642,280.754883
	C234.298248,277.987915 234.442856,275.106903 233.845291,272.379883
	C233.565094,271.101135 232.219040,269.108307 231.285126,269.067657
	C222.385178,268.680206 213.468597,268.530334 204.561035,268.644470
	C203.438324,268.658844 201.427399,270.542969 201.371216,271.639862
	C200.780273,283.177246 202.071274,294.395996 210.555466,303.189453
	C219.599350,312.563019 231.378754,314.927460 243.902145,315.461487
	C243.947403,327.630066 243.942963,339.332031 243.938538,351.034027
z"/>
<path fill="#019DDE" opacity="1.000000" stroke="none"
	d="
M244.993179,151.997375
	C291.088898,150.784225 336.283966,186.744247 342.707214,238.025757
	C349.658020,293.519379 315.348541,331.873291 277.742096,345.453003
	C267.532288,349.139771 256.980774,351.568207 245.407898,350.525024
	C244.847382,338.480682 244.847382,326.907806 244.847382,316.090576
	C251.139084,314.298828 256.644348,312.731049 262.506714,311.092865
	C275.904083,305.944489 285.399963,296.928802 291.070435,284.278046
	C301.218781,261.637054 295.574188,241.356995 280.412933,223.151291
	C273.617065,214.990799 265.516357,207.921265 258.657837,199.807205
	C253.469772,193.669342 249.312790,186.659927 244.754791,179.571213
	C244.872849,170.068466 244.933014,161.032928 244.993179,151.997375
z"/>
<path fill="#B9D8D5" opacity="1.000000" stroke="none"
	d="
M262.149628,311.163239
	C256.644348,312.731049 251.139084,314.298828 244.847382,316.090576
	C244.847382,326.907806 244.847382,338.480682 244.947510,350.511200
	C244.863770,350.994476 244.679871,351.020111 244.217255,351.039886
	C243.942963,339.332031 243.947403,327.630066 243.988922,315.063080
	C245.326111,313.194183 246.567154,311.430725 247.936996,311.324249
	C252.650238,310.957916 257.408508,311.170959 262.149628,311.163239
z"/>
<path fill="#B9D8D5" opacity="1.000000" stroke="none"
	d="
M244.772644,151.940033
	C244.933014,161.032928 244.872849,170.068466 244.622162,179.646530
	C244.431625,180.189041 244.145081,180.292496 244.145081,180.292496
	C244.101624,171.125488 244.058167,161.958496 244.057693,152.305725
	C244.100677,151.819946 244.552094,151.882706 244.772644,151.940033
z"/>
<path fill="#FEFEFE" opacity="1.000000" stroke="none"
	d="
M244.054321,180.668381
	C244.145081,180.292496 244.431625,180.189041 244.564270,180.113724
	C249.312790,186.659927 253.469772,193.669342 258.657837,199.807205
	C265.516357,207.921265 273.617065,214.990799 280.412933,223.151291
	C295.574188,241.356995 301.218781,261.637054 291.070435,284.278046
	C285.399963,296.928802 275.904083,305.944489 262.506714,311.092865
	C257.408508,311.170959 252.650238,310.957916 247.936996,311.324249
	C246.567154,311.430725 245.326111,313.194183 243.939240,314.596497
	C231.378754,314.927460 219.599350,312.563019 210.555466,303.189453
	C202.071274,294.395996 200.780273,283.177246 201.371216,271.639862
	C201.427399,270.542969 203.438324,268.658844 204.561035,268.644470
	C213.468597,268.530334 222.385178,268.680206 231.285126,269.067657
	C232.219040,269.108307 233.565094,271.101135 233.845291,272.379883
	C234.442856,275.106903 234.298248,277.987915 234.761642,280.754883
	C235.570404,285.584290 238.272995,288.529022 243.889847,288.965332
	C244.324142,293.211548 244.324142,297.124817 244.324142,300.942963
	C255.664383,302.092773 266.886108,287.711273 260.079956,275.722870
	C256.239624,268.958435 250.612717,263.208252 245.790573,257.001190
	C245.416916,257.191925 245.043259,257.382690 244.669586,257.573425
	C244.487732,260.146759 244.305878,262.720123 244.124023,265.293457
	C238.441376,261.856506 232.648666,258.586334 227.109787,254.931503
	C222.411362,251.831284 217.579102,248.730270 213.552902,244.853897
	C202.395096,234.111298 199.652863,220.854156 204.341812,206.379669
	C209.013763,191.957718 220.335480,185.435852 234.574326,182.990585
	C237.722656,182.449905 240.834778,181.698593 244.054321,180.668381
M244.343475,230.606400
	C243.449921,236.756805 246.154617,241.072510 250.412506,245.444382
	C258.643677,253.895844 266.138489,263.063324 273.978668,271.898376
	C274.774841,272.795563 275.844635,273.449982 277.414368,274.727112
	C278.110901,272.385712 278.675537,270.875275 279.005432,269.315216
	C281.035248,259.716309 279.832886,250.231567 273.951447,242.621262
	C265.126862,231.202652 255.102310,220.710892 245.552841,209.855972
	C245.288330,209.555283 244.622589,209.607544 243.448090,209.168289
	C238.437881,209.790359 235.888657,212.575912 235.807968,217.673401
	C235.714493,223.581039 238.866455,228.198013 244.343475,230.606400
z"/>
<path fill="#0DA2E0" opacity="1.000000" stroke="none"
	d="
M244.158691,265.734680
	C244.305878,262.720123 244.487732,260.146759 244.669586,257.573425
	C245.043259,257.382690 245.416916,257.191925 245.790573,257.001190
	C250.612717,263.208252 256.239624,268.958435 260.079956,275.722870
	C266.886108,287.711273 255.664383,302.092773 244.324142,300.942963
	C244.324142,297.124817 244.324142,293.211548 244.219086,288.779968
	C244.140488,280.899750 244.166916,273.537842 244.158691,265.734680
z"/>
<path fill="#07A0DF" opacity="1.000000" stroke="none"
	d="
M244.143951,209.495209
	C244.622589,209.607544 245.288330,209.555283 245.552841,209.855972
	C255.102310,220.710892 265.126862,231.202652 273.951447,242.621262
	C279.832886,250.231567 281.035248,259.716309 279.005432,269.315216
	C278.675537,270.875275 278.110901,272.385712 277.414368,274.727112
	C275.844635,273.449982 274.774841,272.795563 273.978668,271.898376
	C266.138489,263.063324 258.643677,253.895844 250.412506,245.444382
	C246.154617,241.072510 243.449921,236.756805 244.276520,229.719849
	C244.187698,222.387283 244.165817,215.941238 244.143951,209.495209
z"/>
<path fill="#FF4886" opacity="1.000000" stroke="none"
	d="
M243.796021,209.331757
	C244.165817,215.941238 244.187698,222.387283 244.177612,229.270218
	C238.866455,228.198013 235.714493,223.581039 235.807968,217.673401
	C235.888657,212.575912 238.437881,209.790359 243.796021,209.331757
z"/>
</svg>
