<svg version="1.1" id="Layer_1" xmlns="http://www.w3.org/2000/svg" xmlns:xlink="http://www.w3.org/1999/xlink" x="0px" y="0px"
	 width="100%" viewBox="0 0 500 500" enable-background="new 0 0 500 500" xml:space="preserve">
<path fill="#fff" opacity="000000"  stroke="none"
	d="
M245.000000,501.000000
	C163.333359,501.000000 82.166702,501.000000 1.000044,501.000000
	C1.000029,334.333405 1.000029,167.666779 1.000015,1.000133
	C167.666565,1.000089 334.333130,1.000089 500.999756,1.000044
	C500.999847,167.666519 500.999847,334.333038 500.999939,500.999786
	C415.833344,501.000000 330.666656,501.000000 245.000000,501.000000
M251.919174,340.945312
	C254.681564,340.634308 257.437195,340.148590 260.207458,340.041443
	C275.074005,339.466492 288.520386,334.552887 301.160095,326.987793
	C322.971283,313.933380 338.172272,295.426331 346.149689,271.342621
	C350.558441,258.032623 352.007751,244.359436 350.235291,230.146194
	C348.697205,217.811874 345.383148,206.346680 339.888672,195.294983
	C333.418640,182.281158 324.402527,171.495682 313.042328,162.507141
	C294.882965,148.138947 274.873322,139.326981 251.074814,141.190018
	C251.074814,141.190018 251.097137,141.292679 250.663361,140.263672
	C246.931381,140.508453 243.202438,140.822647 239.466873,140.985123
	C228.033279,141.482422 216.586426,141.744324 205.165176,142.435623
	C194.861847,143.059250 184.596710,144.315994 174.293121,144.932404
	C167.758926,145.323303 164.847076,147.720932 165.034439,154.222519
	C165.606232,174.062531 166.334839,193.898026 166.998627,213.735382
	C167.667984,233.739609 168.425400,253.741425 168.971252,273.749023
	C169.437027,290.821625 169.657562,307.900940 169.985748,324.977264
	C169.995331,325.476532 169.885422,326.007172 170.016602,326.470703
	C172.023972,333.564545 173.982483,337.320892 182.415192,337.922699
	C191.639252,338.580963 200.903656,338.685425 210.151917,338.986969
	C212.979080,339.079193 215.816071,338.920410 218.639832,339.057159
	C229.303421,339.573517 239.963409,340.164154 250.856674,340.712921
	C250.856674,340.712921 251.081253,340.653229 251.919174,340.945312
z"/>
<path fill="#FF4886" opacity="1.000000" stroke="none"
	d="
M250.624756,340.726990
	C239.963409,340.164154 229.303421,339.573517 218.639832,339.057159
	C215.816071,338.920410 212.979080,339.079193 210.151917,338.986969
	C200.903656,338.685425 191.639252,338.580963 182.415192,337.922699
	C173.982483,337.320892 172.023972,333.564545 170.016602,326.470703
	C169.885422,326.007172 169.995331,325.476532 169.985748,324.977264
	C169.657562,307.900940 169.437027,290.821625 168.971252,273.749023
	C168.425400,253.741425 167.667984,233.739609 166.998627,213.735382
	C166.334839,193.898026 165.606232,174.062531 165.034439,154.222519
	C164.847076,147.720932 167.758926,145.323303 174.293121,144.932404
	C184.596710,144.315994 194.861847,143.059250 205.165176,142.435623
	C216.586426,141.744324 228.033279,141.482422 239.466873,140.985123
	C243.202438,140.822647 246.931381,140.508453 250.825317,141.012711
	C250.987274,151.347992 250.987274,160.934250 250.987274,170.603912
	C246.530701,171.165421 243.080322,171.527237 239.653320,172.044083
	C221.130035,174.837753 209.068329,188.716690 208.874191,206.874603
	C208.727448,220.597778 214.815918,230.972229 225.697418,238.487320
	C233.745987,244.045914 242.430511,248.683640 250.818619,254.171768
	C250.814285,262.195618 250.823059,269.779266 250.505646,277.375916
	C245.710556,277.708069 242.914398,275.405701 241.825653,271.352386
	C240.973221,268.178772 241.088394,264.746277 240.246155,261.568604
	C239.840485,260.038025 238.274292,257.710602 237.138336,257.653961
	C228.556992,257.225891 219.950104,257.159790 211.356613,257.304260
	C210.198334,257.323761 208.152283,259.074646 208.066025,260.148254
	C206.753159,276.488007 211.182419,294.688324 232.054367,301.015961
	C237.864059,302.777252 243.993591,303.483612 250.624756,304.802917
	C250.624756,316.570007 250.624756,328.648499 250.624756,340.726990
z"/>
<path fill="#019DDE" opacity="1.000000" stroke="none"
	d="
M251.145447,141.261978
	C274.873322,139.326981 294.882965,148.138947 313.042328,162.507141
	C324.402527,171.495682 333.418640,182.281158 339.888672,195.294983
	C345.383148,206.346680 348.697205,217.811874 350.235291,230.146194
	C352.007751,244.359436 350.558441,258.032623 346.149689,271.342621
	C338.172272,295.426331 322.971283,313.933380 301.160095,326.987793
	C288.520386,334.552887 275.074005,339.466492 260.207458,340.041443
	C257.437195,340.148590 254.681564,340.634308 251.412994,340.360138
	C250.906830,327.821350 250.906830,315.867737 250.906830,303.781158
	C252.333084,303.525269 253.283173,303.274658 254.247528,303.193420
	C286.284302,300.494324 308.027771,270.922760 301.205872,239.468842
	C298.191467,225.570267 290.041962,214.771912 280.742401,204.619843
	C272.424805,195.539719 263.884552,186.655701 255.809830,177.365891
	C253.515457,174.726242 251.352264,171.046555 251.130814,167.710907
	C250.548080,158.933609 251.065948,150.083237 251.145447,141.261978
z"/>
<path fill="#FFFEFE" opacity="1.000000" stroke="none"
	d="
M251.110138,141.225998
	C251.065948,150.083237 250.548080,158.933609 251.130814,167.710907
	C251.352264,171.046555 253.515457,174.726242 255.809830,177.365891
	C263.884552,186.655701 272.424805,195.539719 280.742401,204.619843
	C290.041962,214.771912 298.191467,225.570267 301.205872,239.468842
	C308.027771,270.922760 286.284302,300.494324 254.247528,303.193420
	C253.283173,303.274658 252.333084,303.525269 250.906830,303.781158
	C250.906830,315.867737 250.906830,327.821350 250.994049,340.214111
	C251.081253,340.653229 250.856674,340.712921 250.740723,340.719971
	C250.624756,328.648499 250.624756,316.570007 250.624756,304.802917
	C243.993591,303.483612 237.864059,302.777252 232.054367,301.015961
	C211.182419,294.688324 206.753159,276.488007 208.066025,260.148254
	C208.152283,259.074646 210.198334,257.323761 211.356613,257.304260
	C219.950104,257.159790 228.556992,257.225891 237.138336,257.653961
	C238.274292,257.710602 239.840485,260.038025 240.246155,261.568604
	C241.088394,264.746277 240.973221,268.178772 241.825653,271.352386
	C242.914398,275.405701 245.710556,277.708069 250.556793,277.812500
	C250.934097,282.125641 250.934097,286.015137 250.934097,289.827454
	C261.632843,290.429321 271.516510,279.039154 267.679474,266.894989
	C264.924408,258.175262 257.486176,252.795151 250.831726,245.069534
	C250.831726,249.085953 250.831726,251.408783 250.831726,253.731598
	C242.430511,248.683640 233.745987,244.045914 225.697418,238.487320
	C214.815918,230.972229 208.727448,220.597778 208.874191,206.874603
	C209.068329,188.716690 221.130035,174.837753 239.653320,172.044083
	C243.080322,171.527237 246.530701,171.165421 250.987274,170.603912
	C250.987274,160.934250 250.987274,151.347992 251.042206,141.527222
	C251.097137,141.292679 251.074814,141.190018 251.110138,141.225998
M250.840088,218.744873
	C251.408371,223.151718 250.279907,227.466934 254.348587,231.559540
	C263.588470,240.853668 271.916351,251.053299 280.653656,260.850372
	C281.371063,261.654816 282.382416,262.197144 283.624390,263.140015
	C284.263214,261.717865 284.883392,260.755127 285.138733,259.703766
	C287.528778,249.861847 286.876526,239.881317 280.786469,231.989975
	C271.612061,220.102020 261.011353,209.314758 250.249741,197.940613
	C244.729034,199.125656 242.230469,201.835083 242.147156,206.726990
	C242.060760,211.800980 245.761124,216.931305 250.840088,218.744873
z"/>
<path fill="#019DDE" opacity="1.000000" stroke="none"
	d="
M250.818619,254.171768
	C250.831726,251.408783 250.831726,249.085953 250.831726,245.069534
	C257.486176,252.795151 264.924408,258.175262 267.679474,266.894989
	C271.516510,279.039154 261.632843,290.429321 250.934097,289.827454
	C250.934097,286.015137 250.934097,282.125641 250.882965,277.799561
	C250.823059,269.779266 250.814285,262.195618 250.818619,254.171768
z"/>
<path fill="#019DDE" opacity="1.000000" stroke="none"
	d="
M251.016968,198.059601
	C261.011353,209.314758 271.612061,220.102020 280.786469,231.989975
	C286.876526,239.881317 287.528778,249.861847 285.138733,259.703766
	C284.883392,260.755127 284.263214,261.717865 283.624390,263.140015
	C282.382416,262.197144 281.371063,261.654816 280.653656,260.850372
	C271.916351,251.053299 263.588470,240.853668 254.348587,231.559540
	C250.279907,227.466934 251.408371,223.151718 250.446564,217.975098
	C250.374359,210.823410 250.695663,204.441513 251.016968,198.059601
z"/>
<path fill="#FF4886" opacity="1.000000" stroke="none"
	d="
M250.633362,198.000107
	C250.695663,204.441513 250.374359,210.823410 250.207001,217.660065
	C245.761124,216.931305 242.060760,211.800980 242.147156,206.726990
	C242.230469,201.835083 244.729034,199.125656 250.633362,198.000107
z"/>
</svg>
