<?xml version="1.0" encoding="UTF-8"?>
<svg width="32px" height="32px" viewBox="0 0 32 32" version="1.1" xmlns="http://www.w3.org/2000/svg" xmlns:xlink="http://www.w3.org/1999/xlink">
    <title>Icon/Content Hide</title>
    <g id="Icon/Content-Hide" stroke="none" stroke-width="1" fill="none" fill-rule="evenodd">
        <path d="M20.7009619,4.85769515 L23.2990381,6.35769515 L11.2990381,27.1423048 L8.70096189,25.6423048 L20.7009619,4.85769515 Z M23.1553088,10.6051806 C24.8473099,11.911889 26.462207,13.7101621 28,16 C24.418278,21.3333333 20.418278,24 16,24 C15.8099449,24 15.6206637,23.9950657 15.4321565,23.9851972 L16.5898612,21.9800875 C19.6709875,21.7711389 22.5855626,19.914521 25.3613379,16.2572718 L25.554,16 L25.3613379,15.7427282 C24.3102132,14.3578089 23.2391851,13.2310945 22.1467465,12.3542791 L23.1553088,10.6051806 Z M16,8 C16.1903909,8 16.3800051,8.00495171 16.5688426,8.01485513 L15.4111385,10.0198447 C12.329643,10.2284595 9.41473757,12.0850835 6.63866209,15.7427282 L6.445,16 L6.63866209,16.2572718 C7.68978677,17.6421911 8.76081493,18.7689055 9.85325349,19.6457209 L8.84469117,21.3948194 C7.15269009,20.088111 5.53779303,18.2898379 4,16 C7.581722,10.6666667 11.581722,8 16,8 Z" id="Shape" fill="#280F4B" fill-rule="nonzero"></path>
    </g>
</svg>