<?xml version="1.0" encoding="UTF-8"?>
<svg width="32px" height="32px" viewBox="0 0 32 32" version="1.1" xmlns="http://www.w3.org/2000/svg" xmlns:xlink="http://www.w3.org/1999/xlink">
    <title>Icon/Content Show</title>
    <g id="Icon/Content-Show" stroke="none" stroke-width="1" fill="none" fill-rule="evenodd">
        <path d="M16,8 C20.418278,8 24.418278,10.6666667 28,16 C24.418278,21.3333333 20.418278,24 16,24 C11.581722,24 7.581722,21.3333333 4,16 C7.581722,10.6666667 11.581722,8 16,8 Z M16,10 C12.7002791,10 9.59096297,11.852896 6.63866209,15.7427282 L6.445,16 L6.63866209,16.2572718 C9.50895461,20.0390531 12.5276605,21.8954896 15.7254633,21.9957069 L16,22 C19.2997209,22 22.409037,20.147104 25.3613379,16.2572718 L25.554,16 L25.3613379,15.7427282 C22.4910454,11.9609469 19.4723395,10.1045104 16.2745367,10.0042931 L16,10 Z M16,11 C18.7614237,11 21,13.2385763 21,16 C21,18.7614237 18.7614237,21 16,21 C13.2385763,21 11,18.7614237 11,16 C11,13.2385763 13.2385763,11 16,11 Z M16,14.25 C15.0335017,14.25 14.25,15.0335017 14.25,16 C14.25,16.9664983 15.0335017,17.75 16,17.75 C16.9664983,17.75 17.75,16.9664983 17.75,16 C17.75,15.0335017 16.9664983,14.25 16,14.25 Z" id="Shape" fill="#280F4B" fill-rule="nonzero"></path>
    </g>
</svg>