<?xml version="1.0" encoding="UTF-8"?>
<svg width="32px" height="32px" viewBox="0 0 32 32" version="1.1" xmlns="http://www.w3.org/2000/svg" xmlns:xlink="http://www.w3.org/1999/xlink">
    <title>Icon/Phone</title>
    <g id="Icon/Phone" stroke="none" stroke-width="1" fill="none" fill-rule="evenodd">
        <path d="M24.9718754,20.6056758 L24.1544926,24.1494254 C24.0396726,24.6504019 23.5993751,25.0009087 23.0836335,25.0009087 C14.2140624,25.0002071 7,17.7861441 7,8.91622269 C7,8.40083193 7.35047245,7.95997226 7.85148442,7.84571445 L11.3952345,7.02833163 C11.911328,6.90873086 12.4386718,7.17662131 12.6531251,7.66536379 L14.288594,11.4798158 C14.4797738,11.9291137 14.3508207,12.4525897 13.972891,12.7612616 L12.0800781,14.2810667 C13.2746873,16.7145823 15.2532816,18.693176 17.6875,19.8884885 L19.2371881,17.9970827 C19.5426252,17.6180984 20.0700397,17.4869652 20.5193366,17.6815551 L24.3337897,19.3166727 C24.7925783,19.55802 25.0914054,20.0923943 24.9718754,20.6056758 Z" id="Path" fill="#280F4B" fill-rule="nonzero"></path>
    </g>
</svg>