<?xml version="1.0" encoding="UTF-8"?>
<svg width="32px" height="32px" viewBox="0 0 32 32" version="1.1" xmlns="http://www.w3.org/2000/svg" xmlns:xlink="http://www.w3.org/1999/xlink">
    <title>Icon/Social/Instagram</title>
    <g id="Icon/Social/Instagram" stroke="none" stroke-width="1" fill="none" fill-rule="evenodd">
        <path d="M16.0020085,11.3850277 C13.4480764,11.3850277 11.3880652,13.4454986 11.3880652,16 C11.3880652,18.554502 13.4480764,20.6149723 16.0020085,20.6149723 C18.5559407,20.6149723 20.6159513,18.554502 20.6159513,16 C20.6159513,13.445498 18.5559407,11.3850277 16.0020085,11.3850277 Z M16.0020085,19.0003351 C14.3515901,19.0003351 13.0023434,17.6548035 13.0023434,16.0000006 C13.0023434,14.3451977 14.3475748,12.9996661 16.0020085,12.9996661 C17.6564417,12.9996661 19.0016731,14.3451977 19.0016731,16.0000006 C19.0016731,17.6548035 17.6524258,19.0003351 16.0020079,19.0003351 L16.0020085,19.0003351 Z M21.8808703,11.1962511 C21.8808703,10.6018078 21.3989964,10.1198263 20.8046857,10.1198263 C20.210375,10.1198263 19.7285011,10.6018078 19.7285011,11.1962511 C19.7285011,11.7906957 20.2063591,12.2726771 20.8046857,12.2726771 C21.3989964,12.2726771 21.8808703,11.7947124 21.8808703,11.1962511 Z M24.9367545,12.2887429 C24.8684885,10.8468153 24.5392087,9.56956365 23.4831009,8.51723818 C22.431009,7.46491148 21.1540436,7.13555821 19.7124376,7.06326025 C18.2266596,6.97891325 13.7733416,6.97891325 12.2875636,7.06326025 C10.8499729,7.13154145 9.57300684,7.46089472 8.51689967,8.51322142 C7.4607925,9.56554812 7.13552735,10.8427985 7.06324614,12.2847262 C6.97891795,13.7708357 6.97891795,18.2251475 7.06324614,19.7112571 C7.13151149,21.1531847 7.46079189,22.4304364 8.51689906,23.4827618 C9.57300623,24.5350873 10.8459564,24.8644418 12.287563,24.9367397 C13.773341,25.0210868 18.226659,25.0210868 19.712437,24.9367397 C21.154043,24.8684585 22.4310096,24.5391053 23.4831003,23.4827618 C24.5351922,22.4304351 24.864472,21.1531847 24.9367539,19.7112571 C25.021082,18.2251475 25.021082,13.7748518 24.9367539,12.2887429 L24.9367545,12.2887429 Z M23.0172886,21.3058129 C22.704071,22.0930496 22.0977128,22.6995432 21.3066359,23.0168474 C20.1220291,23.4867798 17.3110978,23.3783335 16.0020067,23.3783335 C14.6929156,23.3783335 11.877969,23.4827631 10.6973775,23.0168474 C9.91031652,22.7035599 9.30395823,22.0970663 8.9867248,21.3058129 C8.51689784,20.1209418 8.62531935,17.3093832 8.62531935,16 C8.62531935,14.6906168 8.52091308,11.8750427 8.9867248,10.6941871 C9.29994299,9.90695043 9.90630127,9.30045684 10.6973775,8.98315262 C11.8819843,8.51322142 14.6929156,8.62166651 16.0020067,8.62166651 C17.3110978,8.62166651 20.126045,8.51723695 21.3066359,8.98315262 C22.0936969,9.29644131 22.7000552,9.90293367 23.0172886,10.6941871 C23.4871162,11.8790582 23.3786941,14.6906168 23.3786941,16 C23.3786941,17.3093832 23.4871162,20.1249573 23.0172886,21.3058129 Z" id="Shape" fill="#280F4B" fill-rule="nonzero"></path>
    </g>
</svg>