<?xml version="1.0" encoding="UTF-8"?>
<svg width="32px" height="32px" viewBox="0 0 32 32" version="1.1" xmlns="http://www.w3.org/2000/svg" xmlns:xlink="http://www.w3.org/1999/xlink">
    <title>Icon/Social/Linkedin</title>
    <g id="Icon/Social/Linkedin" stroke="none" stroke-width="1" fill="none" fill-rule="evenodd">
        <path d="M23.7142863,7 L8.2816968,7 C7.57455369,7 7,7.58258929 7,8.29776737 L7,23.7022326 C7,24.4174107 7.57455369,25 8.2816968,25 L23.7142863,25 C24.4214294,25 25,24.4174107 25,23.7022326 L25,8.29776737 C25,7.58258929 24.4214294,7 23.7142863,7 Z M12.4401789,22.4285714 L9.77232204,22.4285714 L9.77232204,13.8383927 L12.444197,13.8383927 L12.444197,22.4285714 L12.4401789,22.4285714 Z M11.1062505,12.6651786 C10.2504468,12.6651786 9.55937549,11.9700898 9.55937549,11.1183036 C9.55937549,10.2665174 10.2504474,9.57142857 11.1062511,9.57142857 C11.9580367,9.57142857 12.6531261,10.2665174 12.6531261,11.1183036 C12.6531261,11.9741067 11.9620548,12.6651786 11.1062511,12.6651786 L11.1062505,12.6651786 Z M22.4406251,22.4285714 L19.7727682,22.4285714 L19.7727682,18.25 C19.7727682,17.2535719 19.7526789,15.9718751 18.3866075,15.9718751 C16.9964287,15.9718751 16.7834828,17.0566959 16.7834828,18.1776791 L16.7834828,22.4285714 L14.1156259,22.4285714 L14.1156259,13.8383927 L16.6750007,13.8383927 L16.6750007,15.0116069 L16.7111612,15.0116069 C17.0687502,14.3366068 17.9406251,13.6254462 19.2383937,13.6254462 C21.938393,13.6254462 22.4406251,15.405357 22.4406251,17.7196424 L22.4406251,22.4285714 Z" id="Shape" fill="#280F4B" fill-rule="nonzero"></path>
    </g>
</svg>