<?xml version="1.0" encoding="UTF-8"?>
<svg width="32px" height="32px" viewBox="0 0 32 32" version="1.1" xmlns="http://www.w3.org/2000/svg" xmlns:xlink="http://www.w3.org/1999/xlink">
    <title>Icon/Social/Whatsapp</title>
    <g id="Icon/Social/Whatsapp" stroke="none" stroke-width="1" fill="none" fill-rule="evenodd">
        <path d="M23.3546879,8.55156279 C21.3906257,6.58281279 18.7750013,5.5 15.9953129,5.5 C10.2578125,5.5 5.58906221,10.1687503 5.58906221,15.90625 C5.58906221,17.7390628 6.06718707,19.5296869 6.9765625,21.109375 L5.5,26.5 L11.0171874,25.0515628 C12.5359378,25.8812509 14.2468753,26.3171878 15.9906244,26.3171878 L15.9953122,26.3171878 C21.7281256,26.3171878 26.5,21.6484375 26.5,15.9109378 C26.5,13.1312501 25.3187494,10.5203128 23.3546872,8.55156279 L23.3546879,8.55156279 Z M15.9953122,24.5640631 C14.4390624,24.5640631 12.9156249,24.1468759 11.5890622,23.359375 L11.2749999,23.171875 L8.00312471,24.0296869 L8.875,20.8375006 L8.66874957,20.5093756 C7.80156207,19.1312509 7.34687471,17.5421886 7.34687471,15.9062507 C7.34687471,11.1390634 11.2281249,7.2578125 16,7.2578125 C18.3109369,7.2578125 20.4812503,8.15781307 22.1124997,9.79375029 C23.7437491,11.4296875 24.7468753,13.6000009 24.7422039,15.9109378 C24.7422039,20.6828136 20.7625003,24.5640631 15.9953122,24.5640631 Z M20.7390614,18.0859375 C20.4812489,17.9546881 19.2015619,17.3265619 18.9624991,17.2421875 C18.7234364,17.1531253 18.5499997,17.1109381 18.3765616,17.3734369 C18.2031229,17.6359372 17.7062497,18.2171869 17.5515614,18.3953114 C17.4015615,18.5687494 17.2468739,18.5921869 16.9890614,18.4609361 C15.4609361,17.6968741 14.4578114,17.0968733 13.4499989,15.3671861 C13.1828115,14.9078109 13.7171862,14.9406233 14.2140615,13.9468734 C14.2984366,13.7734361 14.2562487,13.6234362 14.190624,13.4921861 C14.1249993,13.3609359 13.6046865,12.0812483 13.3890612,11.5609369 C13.1781237,11.0546861 12.9624984,11.1249986 12.8031237,11.1156244 C12.6531239,11.1062489 12.4796865,11.1062489 12.3062484,11.1062489 C12.1328111,11.1062489 11.8515611,11.1718736 11.6124983,11.4296861 C11.3734355,11.6921864 10.7031229,12.3203111 10.7031229,13.5999987 C10.7031229,14.8796864 11.6359358,16.1171861 11.7624981,16.2906241 C11.8937483,16.4640622 13.5953102,19.0890622 16.2062483,20.21875 C17.8562489,20.9312506 18.5031233,20.9921875 19.3281236,20.8703122 C19.8296866,20.7953119 20.865623,20.2421875 21.0812483,19.6328125 C21.2968736,19.0234375 21.2968736,18.5031247 21.2312489,18.3953128 C21.1703119,18.2781253 20.9968739,18.2125006 20.7390614,18.0859375 Z" id="Shape" fill="#280F4B" fill-rule="nonzero"></path>
    </g>
</svg>