<?xml version="1.0" encoding="UTF-8"?>
<svg width="32px" height="32px" viewBox="0 0 32 32" version="1.1" xmlns="http://www.w3.org/2000/svg" xmlns:xlink="http://www.w3.org/1999/xlink">
    <title>Icon/Social/Youtube</title>
    <g id="Icon/Social/Youtube" stroke="none" stroke-width="1" fill="none" fill-rule="evenodd">
        <path d="M26.0611851,10.8469925 C25.8196673,9.92316341 25.1080734,9.1955862 24.2045641,8.94867158 C22.5668882,8.5 16,8.5 16,8.5 C16,8.5 9.43315055,8.5 7.79543707,8.94867158 C6.89192773,9.19562435 6.18033331,9.92316341 5.93881545,10.8469925 C5.5,12.5214849 5.5,16.0151563 5.5,16.0151563 C5.5,16.0151563 5.5,19.5088277 5.93881545,21.18332 C6.18033331,22.1071479 6.89192773,22.8044138 7.79543707,23.0513272 C9.43315055,23.5 16,23.5 16,23.5 C16,23.5 22.5668494,23.5 24.2045629,23.0513284 C25.1080711,22.8044138 25.8196673,22.1071491 26.0611851,21.18332 C26.5,19.5088277 26.5,16.0151563 26.5,16.0151563 C26.5,16.0151563 26.5,12.5214849 26.0611851,10.8469925 Z M13.8522588,19.1871486 L13.8522588,12.843164 L19.3408735,16.0152349 L13.8522588,19.1871486 L13.8522588,19.1871486 Z" id="Shape" fill="#280F4B" fill-rule="nonzero"></path>
    </g>
</svg>