<?xml version="1.0" standalone="no"?>
<!DOCTYPE svg PUBLIC "-//W3C//DTD SVG 20010904//EN"
 "http://www.w3.org/TR/2001/REC-SVG-20010904/DTD/svg10.dtd">
<svg version="1.0" xmlns="http://www.w3.org/2000/svg"
 width="500.000000pt" height="500.000000pt" viewBox="0 0 500.000000 500.000000"
 preserveAspectRatio="xMidYMid meet">
<metadata>
Created by potrace 1.14, written by Peter Selinger 2001-2017
</metadata>
<g transform="translate(0.000000,500.000000) scale(0.100000,-0.100000)"
fill="#000000" stroke="none">
<path d="M2062 3585 c-377 -25 -390 -27 -414 -81 -15 -33 48 -1767 65 -1803
29 -59 32 -59 427 -77 201 -9 399 -13 440 -10 225 17 440 116 608 280 94 91
149 168 206 287 76 156 90 225 90 424 0 187 -12 250 -74 398 -92 221 -298 429
-519 522 -196 83 -327 92 -829 60z m501 -370 c17 -22 90 -101 162 -175 196
-204 263 -315 286 -475 11 -80 0 -175 -28 -248 -24 -64 -99 -172 -146 -213
-122 -105 -319 -155 -470 -120 -195 46 -297 173 -297 372 0 72 1 74 28 81 34
10 205 10 254 0 36 -8 36 -8 43 -70 11 -94 33 -127 86 -127 17 0 19 -8 19 -65
0 -75 6 -78 77 -44 59 29 93 87 93 160 0 64 -24 107 -114 204 l-55 60 -1 -42
0 -42 -116 67 c-143 83 -233 162 -271 240 -25 51 -28 68 -28 157 0 87 3 107
26 156 53 112 158 181 312 203 l82 12 14 -25 c8 -15 28 -44 44 -66z"/>
<path d="M2442 3010 c-47 -44 -41 -104 19 -163 31 -32 39 -47 39 -76 0 -33 12
-49 124 -169 69 -72 139 -152 156 -177 18 -26 37 -44 43 -42 38 12 34 183 -7
272 -31 69 -64 111 -204 263 -111 119 -130 129 -170 92z"/>
</g>
</svg>
